<?xml version="1.0" standalone="no"?>
<!DOCTYPE svg PUBLIC "-//W3C//DTD SVG 20010904//EN"
 "http://www.w3.org/TR/2001/REC-SVG-20010904/DTD/svg10.dtd">
<svg version="1.0" xmlns="http://www.w3.org/2000/svg"
 width="728.000000pt" height="724.000000pt" viewBox="0 0 728.000000 724.000000"
 preserveAspectRatio="xMidYMid meet">

<g transform="translate(0.000000,724.000000) scale(0.100000,-0.100000)"
fill="#000000" stroke="none">
<path d="M4270 7177 c0 -20 -9 -44 -20 -57 -11 -13 -20 -26 -20 -29 0 -3 -4
-12 -9 -20 -7 -11 -18 -7 -53 21 -55 45 -86 61 -104 54 -23 -9 -16 -24 25 -52
56 -37 86 -121 31 -86 -11 7 -30 12 -42 12 -12 0 -33 10 -46 23 -27 23 -27 23
-5 -30 10 -25 -35 -13 -57 15 l-21 27 7 -25 6 -25 -24 23 c-36 33 -39 27 -11
-23 39 -71 23 -70 -36 1 -55 66 -85 82 -37 20 14 -19 26 -40 26 -47 0 -7 8
-21 18 -32 12 -15 14 -21 5 -24 -18 -7 -16 -35 7 -95 11 -29 20 -56 20 -59 0
-3 -33 -9 -73 -12 -40 -4 -95 -11 -122 -17 -148 -30 -215 -43 -262 -50 -29 -5
-78 -20 -109 -34 -31 -14 -60 -26 -64 -26 -12 0 -254 -130 -260 -139 -3 -5
-24 -18 -47 -29 -33 -17 -44 -30 -55 -64 -14 -42 -15 -43 -69 -48 -66 -6 -79
-14 -79 -46 0 -14 -11 -47 -25 -74 -14 -27 -25 -57 -25 -66 0 -22 -48 -104
-60 -104 -13 0 -40 -54 -40 -80 0 -24 27 -27 56 -5 25 19 34 19 34 0 0 -9 6
-18 14 -21 14 -5 22 0 80 52 33 29 33 17 0 -49 -28 -56 -54 -82 -96 -98 -15
-6 -29 -21 -32 -35 -5 -19 -12 -25 -29 -22 -19 3 -22 8 -19 38 1 19 -2 42 -7
50 -16 23 -35 -3 -62 -80 -20 -58 -23 -92 -27 -310 -10 -445 -7 -543 25 -627
12 -35 26 -89 29 -120 4 -32 15 -72 25 -89 11 -17 19 -36 19 -42 0 -6 -21 -23
-46 -38 l-46 -27 5 -54 c6 -58 32 -117 101 -233 43 -72 45 -78 45 -156 1 -106
15 -177 49 -244 23 -46 36 -59 82 -82 76 -39 89 -55 120 -150 48 -143 71 -202
96 -245 30 -52 62 -186 69 -295 4 -45 13 -115 21 -154 17 -81 15 -183 -3 -202
-9 -9 -13 -51 -13 -131 0 -112 2 -120 36 -201 20 -47 39 -96 42 -110 3 -13 20
-49 39 -80 18 -30 33 -59 33 -63 0 -4 22 -34 49 -66 26 -32 71 -92 99 -132 28
-41 65 -83 81 -94 26 -17 51 -53 51 -72 0 -3 -16 -3 -36 0 -29 5 -40 2 -60
-18 -13 -13 -24 -31 -24 -40 0 -9 -14 -28 -30 -42 -17 -14 -51 -67 -76 -117
-24 -50 -60 -118 -79 -151 -40 -68 -50 -143 -17 -130 36 15 99 16 152 2 51
-13 55 -17 64 -51 6 -26 16 -41 35 -49 14 -6 47 -26 72 -44 54 -38 92 -112
107 -208 14 -83 55 -222 81 -270 11 -22 21 -46 21 -53 0 -7 9 -31 21 -54 18
-36 20 -52 15 -127 -4 -47 -8 -104 -9 -127 -1 -22 -7 -47 -14 -55 -6 -8 -16
-33 -22 -56 -7 -24 -20 -47 -31 -53 -10 -5 -27 -34 -38 -62 -11 -29 -23 -61
-27 -70 -7 -17 6 -18 179 -18 l186 0 0 540 0 539 28 1 c15 0 38 0 52 1 14 0
34 -1 45 -3 15 -2 21 4 25 27 4 20 8 26 13 18 11 -18 47 -16 47 2 0 8 -5 15
-10 15 -6 0 -15 12 -20 26 -12 31 -44 29 -48 -4 -4 -25 -36 -47 -54 -36 -7 4
-27 7 -45 6 l-33 -3 0 166 c0 161 -1 165 -19 155 -11 -5 -31 -10 -45 -10 -19
0 -27 7 -36 35 -13 38 -54 74 -111 98 -19 8 -58 35 -86 60 -28 24 -72 59 -97
76 -25 18 -46 36 -46 41 0 19 28 10 56 -19 16 -16 61 -45 101 -65 39 -21 77
-44 83 -52 7 -8 17 -14 23 -14 6 0 34 -25 63 -55 73 -75 91 -74 212 10 12 9
22 20 22 25 0 14 -46 12 -69 -2 -28 -17 -51 -3 -51 31 0 28 32 71 52 71 4 0 8
4 8 8 0 4 -12 8 -27 7 l-28 0 0 135 0 135 28 -3 c15 -2 35 2 42 8 8 7 24 10
35 7 15 -4 25 2 37 19 20 31 114 104 170 132 47 24 54 32 62 76 5 21 13 32 28
34 15 2 19 8 16 23 -5 17 0 19 40 19 37 0 46 3 50 22 8 27 1 38 -24 38 -10 0
-19 5 -19 10 0 6 4 10 8 10 5 0 16 16 25 36 10 20 27 38 38 41 12 3 18 11 15
19 -3 7 1 26 9 41 8 15 15 33 15 40 0 17 37 36 45 23 13 -21 33 -9 39 24 4 19
13 37 21 40 8 3 14 15 12 27 -1 16 8 29 29 44 26 18 30 25 22 40 -10 16 -8 17
19 12 44 -9 74 25 32 36 -20 5 -20 6 -3 39 9 18 30 50 47 70 25 32 31 51 41
137 7 55 17 106 23 113 6 7 14 38 18 68 4 32 21 80 40 115 18 34 44 102 59
152 30 104 29 103 16 103 -5 0 -10 -9 -10 -20 0 -10 -9 -24 -20 -30 -11 -6
-20 -17 -20 -25 0 -8 -6 -15 -13 -15 -7 0 -18 -15 -25 -34 -15 -40 -39 -63
-72 -68 -21 -2 -25 -8 -22 -30 2 -18 -2 -28 -10 -28 -7 0 -48 -33 -90 -74 -43
-41 -85 -73 -95 -72 -11 0 -17 -5 -17 -16 1 -10 -2 -15 -7 -13 -12 8 -49 -17
-49 -32 0 -7 -8 -13 -18 -13 -30 0 -61 -28 -55 -50 6 -21 -5 -24 -55 -20 -32
2 -26 -34 5 -38 21 -3 22 -8 18 -50 -3 -26 -14 -59 -25 -74 -11 -15 -20 -37
-20 -48 0 -19 -5 -21 -48 -19 -59 3 -76 -6 -68 -37 8 -30 -9 -32 -20 -1 -6 18
-8 13 -11 -26 -4 -45 -23 -59 -23 -16 0 31 -16 22 -55 -31 -20 -27 -40 -51
-43 -51 -46 -8 -62 -6 -62 7 0 8 -7 14 -15 14 -8 0 -15 -7 -15 -15 0 -22 -27
-18 -33 5 -7 26 -23 26 -30 -1 -6 -20 -10 -22 -67 -16 -33 4 -69 11 -80 17
-10 5 -51 10 -90 10 -59 0 -77 4 -110 26 -31 21 -90 97 -90 116 0 10 130 98
145 98 24 0 55 19 55 33 0 7 -23 30 -51 52 -28 22 -58 46 -66 54 -11 11 -20
11 -39 3 -19 -9 -24 -9 -24 2 0 16 46 56 65 56 17 0 70 -51 88 -85 8 -16 36
-51 62 -76 l47 -47 117 2 c64 1 125 7 136 13 11 6 40 14 65 18 58 9 90 38 90
82 0 26 -5 35 -22 42 -26 9 -193 -1 -220 -13 -16 -7 -18 -2 -18 38 0 30 -4 46
-12 47 -7 1 -47 0 -89 -1 -121 -3 -210 31 -121 45 20 4 50 11 66 16 16 5 61 9
99 9 39 0 118 11 176 24 126 29 235 46 295 46 27 0 48 6 56 15 22 26 -4 40
-73 39 -99 -2 -286 -13 -354 -22 -62 -8 -103 -1 -103 17 0 6 11 13 25 17 28 7
39 34 36 84 -1 23 6 47 21 69 25 37 133 119 158 121 24 1 71 70 64 94 -4 12
-7 22 -8 23 0 1 -21 -3 -46 -9 -25 -5 -65 -12 -90 -14 -25 -3 -55 -10 -67 -16
-31 -15 -101 -4 -127 21 -13 12 -54 27 -105 38 -97 21 -113 35 -92 85 23 56
25 88 8 88 -35 0 -64 -24 -85 -70 -26 -56 -27 -79 -7 -106 8 -10 15 -31 15
-46 0 -21 6 -29 25 -34 19 -5 28 -17 39 -53 13 -42 26 -68 74 -156 23 -41 73
-95 88 -95 16 0 27 -31 16 -42 -5 -5 -40 -17 -78 -27 -38 -10 -80 -23 -93 -30
-13 -7 -34 -11 -48 -8 -31 6 -112 -11 -138 -29 -11 -8 -27 -14 -36 -14 -26 0
-80 -50 -97 -90 l-14 -35 -43 50 c-47 55 -52 59 -112 110 -32 28 -43 45 -48
78 -4 23 -14 55 -22 71 -13 26 -13 35 3 85 22 72 21 214 -3 251 -70 107 -122
164 -184 201 -66 38 -80 56 -95 124 -3 17 -17 48 -29 70 -29 50 -50 204 -41
299 6 69 35 152 67 194 9 12 27 54 38 92 l21 70 -37 56 c-44 67 -52 119 -40
259 4 50 8 124 8 165 1 86 24 152 70 196 38 37 48 23 21 -29 -13 -23 -24 -55
-25 -72 -2 -26 1 -30 25 -30 15 0 28 -3 28 -8 0 -29 57 -97 82 -97 25 0 -10
148 -43 186 -31 34 -24 80 17 118 32 29 34 35 23 58 -15 34 11 115 49 150 82
77 268 116 286 60 5 -15 23 -17 148 -20 135 -2 145 -4 180 -29 31 -21 45 -25
80 -20 23 3 47 13 54 21 15 21 42 20 98 -4 l46 -21 0 -126 0 -125 37 7 c21 4
48 18 62 31 13 13 34 24 47 24 13 0 24 5 24 11 0 8 13 10 37 6 21 -4 52 -2 69
5 17 6 49 8 75 4 35 -5 49 -13 68 -41 16 -23 31 -35 47 -35 13 0 24 3 24 8 1
4 9 17 20 30 18 22 22 23 82 12 35 -7 77 -20 93 -30 20 -12 37 -15 50 -10 11
5 27 9 36 9 23 1 68 -74 75 -127 7 -49 7 -68 4 -167 -3 -81 15 -193 35 -215 9
-10 26 -21 38 -24 32 -8 94 -86 107 -136 6 -23 13 -88 16 -144 3 -55 9 -115
15 -133 19 -59 8 -259 -18 -321 -11 -26 -12 -42 -4 -61 11 -28 9 -55 -4 -85
-9 -21 4 -67 21 -73 16 -5 25 36 30 141 3 50 10 96 15 102 6 7 11 77 13 155
l2 142 32 28 c37 33 73 112 69 154 -1 21 2 30 13 30 11 0 15 -11 14 -45 0 -25
-4 -53 -8 -62 -6 -13 -4 -18 8 -18 12 0 16 -10 16 -44 0 -25 4 -47 9 -50 11
-7 30 105 34 204 2 41 9 85 15 97 33 61 1 92 -41 40 -16 -21 -33 -37 -38 -37
-14 0 -11 38 4 47 40 24 62 104 36 130 -7 7 -8 20 -4 30 4 10 8 32 10 48 3 40
32 200 46 252 8 30 8 50 0 75 -6 19 -13 56 -14 83 -2 28 -7 58 -12 69 -5 11
-3 21 5 26 9 6 7 15 -11 39 -22 30 -20 56 3 33 18 -18 25 -15 32 13 7 26 31
34 38 13 3 -8 17 -5 46 10 24 12 49 22 57 22 24 0 17 19 -10 26 -54 13 -57 70
-4 62 22 -4 29 -1 29 12 0 21 -31 50 -54 50 -36 0 -8 25 45 41 52 15 53 16 24
22 -17 4 -54 1 -85 -8 -30 -8 -56 -12 -59 -10 -2 3 6 17 20 32 19 21 21 25 6
20 -34 -12 -40 5 -11 29 28 22 28 23 7 24 -28 0 -30 16 -3 25 11 3 20 11 20
17 0 10 -27 6 -65 -8 -14 -6 -16 -3 -11 14 5 16 2 21 -16 25 -14 2 -6 5 18 6
42 1 85 24 71 37 -4 4 -13 2 -19 -4 -7 -7 -23 -12 -36 -12 -18 0 -22 4 -17 19
4 13 0 23 -12 30 -10 5 -16 11 -13 13 58 42 91 59 109 53 30 -9 27 18 -3 34
-13 7 -34 26 -45 42 -13 17 -31 29 -44 29 -29 0 -51 15 -43 29 4 6 20 11 37
11 16 0 29 5 29 10 0 6 -8 10 -17 10 -9 0 -24 7 -33 15 -13 12 -23 13 -44 5
-26 -9 -27 -9 -20 12 4 13 12 27 18 31 6 5 2 7 -11 4 -30 -7 -29 2 6 50 25 35
27 41 12 50 -14 9 -14 12 -2 27 8 10 16 42 17 72 2 31 8 62 15 70 20 25 2 27
-29 4 -17 -12 -35 -19 -41 -16 -6 4 -19 2 -30 -3 -13 -7 -29 -7 -50 0 -24 8
-35 8 -46 -1 -21 -17 -29 -6 -15 19 16 30 -5 27 -35 -5 -14 -15 -25 -21 -25
-14 0 9 -8 6 -23 -8 -13 -12 -26 -22 -30 -22 -13 0 -7 35 9 58 8 12 12 22 9
22 -10 0 35 62 63 87 23 21 23 23 7 39 -16 16 -19 15 -51 -22 -18 -21 -34 -43
-34 -48 0 -4 -9 -6 -19 -3 -12 3 -27 -3 -38 -15 -10 -12 -25 -17 -37 -14 -12
3 -25 -2 -32 -12 -13 -16 -13 -16 -14 0 0 9 5 20 10 23 16 10 12 32 -7 39 -9
4 -20 1 -25 -6 -5 -8 -8 -1 -8 20 0 20 -4 31 -10 27 -14 -8 -13 46 1 82 20 50
28 83 20 83 -4 0 -15 -22 -25 -49 -9 -27 -24 -52 -32 -55 -10 -4 -14 -16 -12
-32 2 -20 -2 -28 -14 -30 -28 -4 -32 15 -9 40 13 14 19 29 15 39 -3 9 0 32 6
52 16 49 5 56 -16 11 -10 -20 -21 -36 -26 -36 -4 0 -8 -11 -8 -25 0 -14 -4
-25 -10 -25 -5 0 -10 -11 -10 -24 0 -14 -10 -30 -25 -40 -22 -15 -25 -15 -35
2 -10 14 -10 13 -5 -8 16 -60 17 -70 8 -70 -32 0 -63 90 -40 112 10 9 11 18 3
35 -11 23 -26 31 -26 13 0 -39 -71 62 -76 108 -3 25 -24 56 -32 47 -3 -2 0
-10 5 -17 6 -7 13 -29 16 -48 2 -19 10 -49 17 -66 7 -17 10 -40 6 -50 -7 -19
-8 -19 -21 0 -8 10 -25 24 -39 32 -22 11 -26 11 -26 -1 0 -19 -20 -29 -33 -16
-7 7 -6 16 6 29 25 27 21 39 -14 46 -28 5 -30 9 -28 40 2 19 0 38 -4 42 -4 4
-7 2 -7 -4 0 -7 -6 -12 -13 -12 -14 0 -47 60 -47 85 0 8 -4 15 -10 15 -5 0
-10 -15 -10 -33z"/>
<path d="M4986 4728 c-12 -40 -14 -76 -3 -87 9 -10 8 -16 -7 -27 -23 -16 -36
-18 -36 -4 0 5 -8 19 -17 30 -21 24 -92 27 -144 7 -36 -15 -134 -14 -184 1
-17 5 -43 5 -60 0 -16 -4 -76 -8 -133 -7 -91 1 -106 -1 -125 -19 -12 -11 -33
-25 -47 -31 -14 -6 -32 -15 -40 -20 -8 -5 -40 -21 -72 -35 -31 -15 -63 -38
-72 -52 -16 -23 -16 -26 3 -53 12 -16 26 -46 33 -67 11 -32 18 -40 42 -42 19
-3 32 2 39 13 12 21 74 12 137 -20 52 -27 142 -55 175 -55 12 0 28 7 35 15 7
8 25 15 41 15 15 0 31 5 34 10 3 6 15 10 26 10 11 0 19 7 19 16 0 12 -6 15
-22 9 -21 -6 -72 -17 -154 -31 -25 -5 -36 0 -63 26 -28 28 -30 34 -18 49 8 9
17 24 20 34 7 18 8 17 33 -2 46 -36 148 -19 174 28 9 18 17 20 53 15 23 -4 47
-12 53 -19 17 -22 128 -23 151 -2 23 20 37 22 30 4 -4 -10 3 -12 23 -9 28 4
28 3 24 -34 -8 -71 -9 -124 -2 -124 14 0 42 52 49 93 19 108 38 170 58 198 17
23 20 37 15 64 -7 37 -13 42 -32 23 -20 -20 -27 2 -10 33 10 16 15 36 12 44
-7 18 -33 20 -38 3z"/>
<path d="M3303 4630 c-50 -7 -83 -34 -83 -67 0 -20 -5 -23 -40 -23 -27 0 -47
7 -60 20 -11 11 -23 20 -28 20 -14 0 -55 -99 -49 -120 3 -12 1 -35 -5 -51 -14
-41 -1 -97 29 -125 32 -30 115 -34 144 -8 16 14 25 15 65 5 56 -14 69 -6 49
33 -24 45 -19 64 17 74 27 7 39 4 67 -15 57 -39 116 -25 151 34 17 29 23 32
40 23 17 -9 19 -17 14 -48 -5 -33 -3 -39 23 -53 17 -10 40 -15 60 -12 48 8 83
-4 83 -27 0 -20 24 -28 35 -11 3 5 19 13 36 16 l32 7 -5 103 c-3 73 -10 111
-21 128 -19 30 -102 63 -179 72 -29 4 -73 13 -98 20 -47 14 -206 17 -277 5z"/>
<path d="M5351 4514 c0 -11 3 -14 6 -6 3 7 2 16 -1 19 -3 4 -6 -2 -5 -13z"/>
<path d="M5265 4474 c-50 -55 -55 -69 -24 -61 13 4 27 7 32 7 4 0 7 5 7 11 0
6 7 26 16 45 9 19 15 36 13 38 -2 2 -22 -16 -44 -40z"/>
<path d="M5050 4470 c0 -11 5 -20 10 -20 6 0 10 9 10 20 0 11 -4 20 -10 20 -5
0 -10 -9 -10 -20z"/>
<path d="M5327 4446 c-4 -10 -5 -21 -2 -24 9 -9 17 6 13 25 -3 17 -4 17 -11
-1z"/>
<path d="M5050 4425 c0 -8 5 -15 10 -15 6 0 10 7 10 15 0 8 -4 15 -10 15 -5 0
-10 -7 -10 -15z"/>
<path d="M5311 4384 c0 -11 3 -14 6 -6 3 7 2 16 -1 19 -3 4 -6 -2 -5 -13z"/>
<path d="M5050 4375 c0 -8 5 -15 10 -15 6 0 10 7 10 15 0 8 -4 15 -10 15 -5 0
-10 -7 -10 -15z"/>
<path d="M4825 4308 c-4 -18 -14 -43 -22 -55 -15 -22 -11 -43 8 -43 5 0 9 10
9 23 0 12 7 31 15 41 17 22 20 52 6 60 -5 4 -13 -8 -16 -26z"/>
<path d="M4986 4265 c4 -78 -22 -135 -61 -135 -30 0 -40 -15 -40 -60 0 -32 -3
-35 -32 -38 -38 -4 -42 -12 -35 -80 5 -52 6 -53 31 -47 14 3 32 13 38 22 18
23 29 8 15 -20 -15 -32 -25 -154 -12 -162 11 -7 41 55 33 67 -2 5 5 21 16 37
12 16 21 33 21 37 0 4 8 16 17 26 17 20 27 115 11 124 -11 7 -10 61 2 69 6 3
10 26 10 50 0 31 5 47 17 54 15 8 15 11 3 26 -11 13 -11 18 -1 25 18 10 1 64
-21 68 -13 3 -15 -8 -12 -63z"/>
<path d="M3608 4293 c-36 -9 -20 -33 22 -33 29 0 40 4 40 15 0 8 -4 15 -9 15
-5 0 -15 2 -23 4 -7 2 -21 2 -30 -1z"/>
<path d="M5226 4287 c-10 -8 -16 -22 -14 -33 3 -16 7 -14 21 14 19 36 19 38
-7 19z"/>
<path d="M3350 4260 c0 -27 30 -40 92 -39 69 2 110 11 116 27 3 9 -17 12 -77
12 -44 0 -91 4 -105 10 -22 8 -26 7 -26 -10z"/>
<path d="M4066 4223 c-11 -11 -6 -23 8 -23 8 0 17 4 20 9 7 10 -19 23 -28 14z"/>
<path d="M5155 4199 c-12 -19 5 -23 22 -6 16 16 16 17 1 17 -9 0 -20 -5 -23
-11z"/>
<path d="M5030 4186 c0 -8 5 -18 10 -21 6 -3 10 1 10 9 0 8 -4 18 -10 21 -5 3
-10 -1 -10 -9z"/>
<path d="M4053 4140 c-3 -17 -10 -33 -14 -36 -10 -6 -12 -124 -3 -148 4 -10
18 -16 35 -16 31 0 34 6 20 29 -6 9 -6 22 0 34 7 12 7 22 0 31 -6 8 -9 20 -7
27 2 8 7 35 10 62 5 42 4 47 -14 47 -15 0 -22 -9 -27 -30z"/>
<path d="M4110 4071 c0 -6 5 -13 10 -16 6 -3 10 1 10 9 0 9 -4 16 -10 16 -5 0
-10 -4 -10 -9z"/>
<path d="M4234 3888 c-7 -10 2 -19 42 -44 13 -8 18 -21 16 -49 -3 -35 -1 -37
15 -24 10 7 20 15 22 16 7 5 -69 113 -79 113 -5 0 -12 -5 -16 -12z"/>
<path d="M4376 2998 c-47 -23 -34 -44 25 -39 13 1 39 39 39 56 0 9 -26 2 -64
-17z"/>
<path d="M4455 2983 c-15 -14 -15 -18 -1 -31 18 -19 46 -9 46 17 0 26 -26 34
-45 14z"/>
<path d="M5021 2763 c10 -43 25 -98 33 -122 9 -24 16 -60 16 -80 0 -20 5 -43
10 -51 7 -10 10 7 10 58 0 46 4 71 10 67 17 -11 12 -207 -6 -233 -10 -15 -13
-30 -8 -45 10 -29 6 -56 -13 -85 -19 -31 -10 -39 16 -15 33 31 61 137 71 273
l10 124 -25 26 c-40 42 -30 54 18 22 23 -16 58 -32 79 -36 20 -4 39 -14 42
-23 7 -19 -10 -43 -31 -43 -12 0 -14 -7 -8 -27 4 -16 8 -48 9 -72 0 -28 6 -46
15 -49 10 -3 13 2 9 22 -4 18 0 33 12 44 22 21 32 85 19 119 -10 27 -47 62
-66 63 -6 0 -38 20 -71 45 -33 25 -64 45 -69 45 -4 0 -25 11 -45 25 -20 14
-41 25 -46 25 -5 0 -1 -35 9 -77z m64 -92 c3 -5 1 -12 -5 -16 -5 -3 -10 1 -10
9 0 18 6 21 15 7z"/>
<path d="M3025 2763 c-37 -30 -56 -56 -87 -123 -34 -73 -53 -98 -140 -184
-118 -117 -142 -136 -228 -177 -36 -16 -105 -50 -155 -73 -49 -24 -124 -56
-165 -71 -41 -15 -79 -31 -85 -35 -5 -4 -25 -11 -42 -15 -18 -3 -36 -12 -40
-19 -5 -6 -37 -24 -73 -40 -36 -15 -78 -33 -95 -41 -76 -33 -209 -84 -330
-127 -16 -6 -35 -15 -41 -19 -6 -5 -29 -15 -52 -23 -44 -16 -397 -190 -416
-205 -6 -5 -33 -15 -60 -23 -33 -10 -80 -40 -148 -94 -94 -75 -101 -84 -145
-171 l-46 -93 -13 -180 c-7 -100 -16 -202 -19 -228 -11 -87 -37 -227 -45 -247
-5 -11 -11 -90 -13 -175 -4 -137 -25 -293 -53 -382 -5 -17 60 -18 1270 -18
l1276 0 0 29 c0 17 5 33 10 36 13 8 13 50 1 73 -6 9 -12 29 -16 45 -3 15 -12
27 -20 27 -23 0 -18 20 10 46 29 26 27 55 -6 110 -15 25 -19 55 -21 160 -2 71
-1 135 2 143 3 8 -5 19 -17 26 -13 7 -19 15 -14 21 34 34 46 297 22 464 -6 47
-14 247 -17 445 -3 198 -6 392 -8 430 -4 105 22 413 40 475 9 30 25 93 35 140
10 47 21 95 25 108 10 35 -25 28 -81 -15z"/>
<path d="M5390 2572 c0 -16 37 -42 70 -52 50 -14 47 -6 -10 29 -54 33 -60 36
-60 23z"/>
<path d="M5350 2506 c0 -7 7 -19 15 -26 13 -11 15 -8 15 14 0 16 -5 26 -15 26
-8 0 -15 -6 -15 -14z"/>
<path d="M5423 2483 c-20 -8 -15 -23 7 -23 11 0 20 7 20 15 0 15 -6 17 -27 8z"/>
<path d="M5530 2482 c0 -12 19 -26 26 -19 2 2 -2 10 -11 17 -9 8 -15 8 -15 2z"/>
<path d="M5202 2448 c-18 -18 -15 -43 8 -63 22 -20 25 -20 34 13 6 18 4 22
-14 22 -17 0 -20 4 -15 20 7 23 4 25 -13 8z"/>
<path d="M5830 2291 c0 -5 57 -43 128 -84 170 -99 172 -100 172 -115 0 -24
-66 -82 -93 -82 -13 0 -44 11 -69 25 -24 13 -70 27 -101 31 -54 6 -59 5 -64
-15 -8 -31 -33 -26 -34 7 -1 26 -1 26 -10 -6 -6 -18 -16 -35 -24 -39 -22 -8
-18 -41 5 -48 11 -3 20 -12 20 -19 0 -7 22 -17 53 -24 54 -11 177 -14 177 -4
0 3 -7 14 -17 24 -22 24 -13 31 31 23 32 -6 35 -10 30 -31 -9 -35 17 -39 61
-10 21 14 42 26 46 26 18 0 8 22 -11 27 -11 3 -20 12 -20 20 0 13 8 14 43 9
48 -8 197 -15 197 -10 0 2 -27 17 -59 34 -65 32 -108 60 -169 108 -32 26 -274
162 -288 162 -2 0 -4 -4 -4 -9z"/>
<path d="M5526 2281 c-6 -10 34 -42 67 -54 13 -5 17 -1 17 18 0 13 -3 26 -7
28 -20 12 -72 17 -77 8z"/>
<path d="M4490 2256 c0 -9 7 -16 16 -16 9 0 14 5 12 12 -6 18 -28 21 -28 4z"/>
<path d="M5029 2213 c-10 -2 -19 -12 -22 -21 -3 -9 -14 -29 -23 -44 -10 -15
-15 -31 -10 -35 10 -9 86 73 86 93 0 14 -3 15 -31 7z"/>
<path d="M5653 2210 c-12 -5 -29 -25 -37 -44 -17 -42 -54 -56 -93 -35 -23 12
-27 11 -44 -10 -14 -18 -18 -32 -13 -57 5 -26 2 -35 -10 -40 -9 -3 -15 -12
-14 -18 2 -6 -16 -32 -40 -56 -24 -25 -45 -55 -49 -68 -3 -13 -17 -28 -30 -33
-14 -5 -27 -18 -30 -29 -3 -11 -11 -20 -18 -20 -8 0 -22 -11 -32 -24 -10 -13
-32 -30 -49 -39 -43 -22 -57 -42 -46 -64 14 -27 1 -51 -38 -72 -20 -10 -36
-27 -38 -40 -3 -19 1 -21 41 -21 l44 0 7 -61 c5 -54 3 -64 -18 -92 -34 -46
-49 -101 -40 -145 8 -37 8 -78 -1 -119 -3 -14 -15 -24 -35 -28 -20 -4 -30 -13
-30 -25 0 -19 22 -28 103 -45 18 -4 27 -12 27 -25 0 -10 5 -22 10 -25 6 -3 10
-16 10 -28 0 -13 6 -31 13 -42 7 -11 19 -40 26 -65 7 -25 17 -49 21 -55 5 -5
14 -37 20 -71 15 -75 26 -96 40 -74 5 8 10 29 10 46 0 18 6 34 13 37 7 3 19
31 26 63 10 44 23 67 51 97 22 22 41 52 44 71 6 30 10 34 47 39 54 7 71 23 45
42 -14 10 -16 18 -9 27 6 7 14 24 18 37 4 12 17 37 29 55 17 25 20 43 18 93
-3 55 -6 62 -28 67 -13 4 -24 13 -24 20 0 8 -8 28 -17 44 -16 28 -16 31 0 46
13 14 15 22 6 37 -6 11 -7 29 -2 42 4 12 8 29 9 37 0 8 4 29 8 47 8 29 11 31
33 22 26 -10 47 -4 38 12 -8 12 11 12 34 -1 13 -6 24 -5 37 4 15 12 17 20 9
52 -9 36 -14 40 -56 49 -55 12 -82 32 -76 56 4 13 -4 21 -26 29 -24 8 -28 13
-19 22 15 15 15 51 1 65 -9 9 1 11 37 10 47 -2 49 -1 71 40 12 24 33 59 47 80
17 24 22 41 16 47 -17 17 -11 34 15 40 28 7 35 43 9 53 -8 3 -13 12 -10 19 3
8 -3 18 -14 24 -21 11 -18 11 -47 0z"/>
<path d="M5590 1849 c-13 -24 -4 -41 10 -19 10 16 13 40 5 40 -2 0 -9 -9 -15
-21z"/>
<path d="M4295 1760 c-18 -8 -17 -9 8 -9 15 -1 27 4 27 9 0 12 -8 12 -35 0z"/>
<path d="M6162 1761 c-8 -5 -12 -17 -10 -27 2 -14 15 -20 50 -24 31 -4 62 -17
92 -38 50 -36 56 -38 56 -18 0 17 -56 66 -76 66 -7 0 -16 11 -20 25 -5 21 -12
25 -43 25 -20 0 -42 -4 -49 -9z"/>
<path d="M5740 1726 c0 -13 7 -29 15 -36 8 -7 15 -25 15 -40 0 -16 3 -36 6
-45 7 -17 54 -45 78 -45 16 0 56 68 56 94 0 23 -20 29 -39 12 -16 -14 -21 -12
-69 34 -29 28 -55 50 -57 50 -3 0 -5 -11 -5 -24z"/>
<path d="M5942 1738 c-16 -16 -15 -39 3 -52 21 -15 32 -111 15 -131 -15 -18
-12 -24 20 -27 18 -2 24 2 27 26 2 15 -2 38 -10 50 -8 11 -17 37 -20 56 -16
90 -18 95 -35 78z"/>
<path d="M5075 1659 c-8 -23 -1 -34 14 -24 13 8 15 45 2 45 -5 0 -13 -9 -16
-21z"/>
<path d="M5697 1584 c-3 -4 -24 -6 -47 -6 -36 1 -40 -2 -40 -23 0 -21 6 -24
55 -30 31 -4 68 -5 83 -2 33 7 54 -18 62 -72 3 -19 10 -36 17 -38 22 -8 24 36
4 83 -12 26 -21 53 -21 60 0 17 -22 18 -37 3 -8 -8 -14 -5 -22 10 -11 20 -41
28 -54 15z"/>
<path d="M5053 1509 c-28 -10 -30 -39 -4 -39 23 0 48 28 35 39 -5 5 -19 5 -31
0z"/>
<path d="M5010 1421 c0 -20 25 -35 41 -25 5 3 9 14 9 25 0 14 -7 19 -25 19
-18 0 -25 -5 -25 -19z"/>
<path d="M6030 1391 c0 -16 5 -33 10 -36 6 -4 10 6 10 24 0 16 -4 33 -10 36
-6 4 -10 -6 -10 -24z"/>
<path d="M6316 1412 c-7 -11 -2 -90 6 -98 9 -8 17 91 8 99 -4 5 -11 4 -14 -1z"/>
<path d="M4437 1303 c-16 -15 -6 -96 16 -137 30 -57 46 -72 85 -81 26 -5 33
-3 38 12 3 10 11 29 19 43 8 14 24 42 35 63 26 48 23 91 -7 95 -14 2 -23 -3
-28 -17 -9 -29 -41 -44 -80 -37 -26 5 -34 12 -39 36 -5 28 -24 39 -39 23z"/>
<path d="M6210 1267 c0 -8 6 -20 14 -26 10 -8 14 -30 13 -64 -1 -29 2 -58 6
-65 8 -12 0 -18 -37 -24 -30 -5 -31 -26 -2 -39 15 -7 26 -20 26 -31 0 -15 6
-19 28 -16 23 3 27 7 24 31 -2 22 2 30 17 34 27 7 27 33 1 33 -17 0 -18 3 -8
19 9 15 8 24 -7 48 -11 15 -22 46 -25 68 -4 32 -10 41 -27 43 -15 2 -23 -2
-23 -11z"/>
<path d="M4385 1178 l-20 -20 25 4 c14 2 26 11 28 21 4 22 -8 21 -33 -5z"/>
<path d="M6075 1181 c-6 -11 35 -101 46 -101 17 0 18 20 3 64 -15 43 -35 58
-49 37z"/>
<path d="M4325 1157 c-27 -23 -28 -26 -12 -33 23 -8 50 17 45 41 -3 16 -6 16
-33 -8z"/>
<path d="M4250 1150 c0 -5 9 -10 20 -10 11 0 20 5 20 10 0 6 -9 10 -20 10 -11
0 -20 -4 -20 -10z"/>
<path d="M6029 1108 c-1 -2 -3 -27 -4 -55 -3 -53 8 -74 28 -54 6 6 21 11 34
11 15 0 23 6 23 18 0 24 -74 96 -81 80z"/>
<path d="M4295 1044 c-69 -34 -79 -40 -83 -54 -4 -12 -2 -13 9 -2 7 6 29 12
50 12 53 0 101 19 97 39 -4 21 -35 23 -73 5z"/>
<path d="M4705 1029 c-19 -36 -15 -45 13 -28 16 10 26 10 46 1 37 -17 32 1 -9
32 l-34 26 -16 -31z"/>
<path d="M6126 1034 c-8 -32 -1 -42 22 -28 22 14 22 48 1 52 -11 2 -19 -6 -23
-24z"/>
<path d="M4087 1033 c-12 -11 -8 -23 8 -23 8 0 15 7 15 15 0 16 -12 20 -23 8z"/>
<path d="M3120 288 c0 -58 22 -93 31 -48 4 21 -11 79 -22 85 -5 4 -9 -13 -9
-37z"/>
<path d="M3135 140 c-8 -13 14 -80 26 -80 5 0 9 20 9 45 0 33 -4 45 -14 45 -8
0 -18 -5 -21 -10z"/>
</g>
</svg>
