<?xml version="1.0" standalone="no"?>
<!DOCTYPE svg PUBLIC "-//W3C//DTD SVG 20010904//EN"
 "http://www.w3.org/TR/2001/REC-SVG-20010904/DTD/svg10.dtd">
<svg version="1.0" xmlns="http://www.w3.org/2000/svg"
 width="736.000000pt" height="736.000000pt" viewBox="0 0 736.000000 736.000000"
 preserveAspectRatio="xMidYMid meet">

<g transform="translate(0.000000,736.000000) scale(0.100000,-0.100000)"
fill="#000000" stroke="none">
<path d="M3515 7134 c-16 -3 -77 -11 -135 -20 -471 -69 -781 -250 -992 -579
-85 -132 -121 -205 -103 -205 9 0 27 11 41 25 14 14 26 25 28 25 2 0 7 -20 10
-45 4 -25 11 -45 16 -45 4 0 31 21 59 46 48 43 71 49 71 19 0 -7 -23 -48 -52
-90 -44 -66 -54 -75 -64 -61 -15 22 -44 10 -44 -18 0 -21 -45 -75 -54 -65 -2
2 -11 29 -21 59 -22 66 -23 63 -59 -107 -77 -368 -54 -750 64 -1075 l28 -77
-31 -10 c-42 -15 -67 -40 -67 -66 0 -13 25 -74 55 -136 59 -124 94 -243 121
-414 20 -127 40 -156 116 -176 l45 -12 43 -131 c23 -72 67 -187 97 -256 40
-91 60 -153 74 -230 24 -130 36 -462 21 -569 -10 -70 -9 -80 20 -170 109 -345
338 -638 720 -921 l76 -57 59 9 c88 13 230 56 299 89 51 26 70 43 121 112 315
429 460 790 423 1054 -5 41 -13 79 -16 85 -3 5 -19 -2 -34 -17 -16 -15 -33
-26 -38 -24 -12 5 21 199 54 313 14 49 47 141 73 205 27 64 52 141 55 171 9
68 2 61 -38 -38 -38 -93 -97 -194 -159 -272 -38 -49 -49 -56 -83 -58 -46 -3
-230 -30 -259 -38 -40 -11 -75 -27 -75 -34 0 -4 38 -22 84 -40 47 -18 95 -43
107 -56 21 -22 21 -27 10 -65 -26 -87 -87 -155 -169 -190 -23 -10 -83 -26
-134 -34 -77 -14 -114 -14 -241 -5 -176 13 -235 24 -298 55 -49 25 -119 96
-119 120 0 26 35 51 107 79 113 43 113 44 54 99 -27 26 -58 48 -68 48 -10 1
-27 2 -37 3 -28 1 -30 19 -6 49 42 54 101 26 153 -73 13 -25 43 -58 66 -75 40
-28 49 -30 129 -30 80 0 93 3 170 39 79 38 82 40 82 73 0 39 22 87 47 103 13
8 -5 8 -67 3 -177 -15 -418 0 -435 27 -19 31 171 55 450 55 150 0 190 -13 221
-71 19 -36 52 -46 72 -21 11 13 0 51 -17 62 -6 3 -11 19 -11 35 0 38 -16 46
-132 66 -131 24 -426 24 -572 0 -241 -39 -390 -112 -357 -175 18 -32 13 -43
-16 -39 -21 2 -44 26 -106 108 -43 58 -95 134 -114 169 l-36 63 12 94 c24 196
15 229 -85 337 -257 277 -310 571 -159 872 l43 87 -19 32 c-29 47 -56 142 -64
226 -7 77 2 171 31 341 l17 97 40 13 c23 7 58 30 79 49 35 34 37 39 26 66 -27
74 40 179 144 224 67 29 153 25 199 -9 29 -22 33 -22 119 -10 93 12 160 4 206
-26 18 -12 28 -11 65 2 61 21 150 13 189 -16 29 -21 32 -21 100 -7 90 18 142
8 191 -40 l37 -36 16 23 16 23 202 -101 c112 -56 235 -112 274 -124 l72 -22
26 -86 c47 -150 69 -308 64 -460 -4 -119 -2 -140 18 -195 36 -102 77 -376 70
-473 -3 -45 -9 -90 -12 -100 -3 -11 4 -7 21 12 14 17 28 42 32 58 4 20 17 32
49 46 53 24 94 83 102 147 5 43 3 47 -14 40 -39 -16 -121 -29 -137 -23 -10 4
-17 17 -17 35 0 28 49 120 93 171 21 25 26 51 45 232 46 416 49 590 16 829
-19 135 -66 316 -117 453 -39 106 -41 109 -121 181 -234 213 -477 349 -760
427 -90 25 -134 31 -236 34 -69 2 -138 1 -155 -1z"/>
<path d="M4295 5015 c-5 -2 -74 -11 -152 -20 -164 -18 -269 -43 -343 -80 l-52
-27 7 -51 c5 -29 9 -78 10 -109 3 -81 39 -117 66 -67 10 20 17 21 76 16 95 -7
103 -3 103 49 0 53 20 67 53 37 58 -54 123 -58 169 -13 16 17 33 30 37 30 4 0
40 -20 81 -45 85 -51 117 -55 149 -21 41 44 17 73 -131 156 -43 24 -78 47 -78
52 0 12 36 9 105 -7 32 -8 60 -13 61 -12 2 1 -24 24 -57 50 -32 26 -59 52 -59
57 0 10 -25 12 -45 5z"/>
<path d="M3095 4970 c-16 -4 -65 -8 -107 -9 -104 -1 -126 -12 -130 -65 -3 -40
-4 -41 -45 -44 -36 -3 -44 1 -59 22 -20 31 -30 26 -55 -28 -26 -56 -25 -138 2
-194 28 -57 56 -68 129 -49 30 8 74 13 97 10 l42 -5 -15 31 c-18 35 -11 66 17
81 15 9 27 5 56 -15 25 -16 51 -25 77 -25 33 0 45 7 78 41 47 49 68 46 68 -9
0 -53 22 -70 95 -74 58 -3 60 -4 60 -30 -1 -16 1 -28 3 -28 2 0 26 18 53 41
43 35 49 46 49 78 0 66 -29 143 -70 183 -35 35 -42 38 -94 38 -37 0 -77 8
-114 24 -73 30 -100 35 -137 26z"/>
<path d="M3225 4599 c-4 -6 -5 -13 -2 -16 8 -8 67 7 67 18 0 13 -57 11 -65 -2z"/>
<path d="M2980 4581 c0 -19 39 -41 74 -41 42 0 126 19 126 29 0 3 -21 6 -47 6
-27 0 -72 3 -100 7 -29 4 -53 3 -53 -1z"/>
<path d="M3935 4535 c88 -80 156 -110 217 -98 31 6 39 -1 -121 98 -26 16 -64
30 -90 32 l-46 4 40 -36z"/>
<path d="M4593 4247 c-103 -170 -125 -244 -84 -281 34 -30 63 -17 83 37 19 51
72 320 66 337 -2 5 -31 -36 -65 -93z"/>
<path d="M4793 4343 c-9 -3 -7 -13 8 -33 18 -24 20 -33 10 -61 -6 -19 -34 -63
-61 -99 -92 -119 -111 -150 -108 -173 2 -13 11 -23 23 -25 17 -2 23 6 32 40 7
24 44 99 83 167 40 68 74 139 77 157 5 32 4 34 -23 33 -16 0 -35 -3 -41 -6z"/>
<path d="M3907 4168 c20 -60 23 -78 13 -102 -10 -28 -12 -29 -68 -23 -52 6
-64 3 -113 -23 -74 -40 -114 -39 -172 5 -42 32 -51 35 -115 35 -81 0 -98 12
-88 62 17 90 18 108 8 108 -15 0 -76 -71 -91 -106 -11 -28 -10 -37 10 -75 12
-24 37 -61 55 -82 19 -20 34 -45 34 -55 0 -42 61 -139 132 -209 l73 -72 93 55
c118 70 163 116 192 196 35 97 66 144 100 156 33 12 35 19 19 76 -10 35 -81
126 -99 126 -4 0 3 -33 17 -72z"/>
<path d="M2678 3064 c-44 -34 -64 -59 -88 -111 -63 -133 -169 -257 -270 -315
-25 -15 -191 -90 -370 -168 -623 -272 -952 -427 -1254 -590 -169 -92 -264
-178 -311 -285 -19 -42 -24 -74 -28 -205 -7 -187 -24 -317 -83 -640 -54 -295
-84 -477 -84 -507 l0 -23 1282 0 1281 0 -6 173 c-8 195 -21 350 -77 862 -64
590 -65 611 -65 955 0 264 3 346 18 438 22 140 66 318 100 400 13 34 22 62 18
62 -3 -1 -32 -21 -63 -46z"/>
<path d="M4602 3019 c16 -58 21 -119 25 -276 10 -369 -38 -724 -222 -1663 -30
-151 -77 -396 -105 -545 -27 -148 -52 -280 -55 -293 l-5 -22 1470 0 1470 0 -5
23 c-12 54 -78 420 -109 612 -33 200 -62 433 -85 684 -13 135 -46 222 -102
263 -19 13 -117 62 -219 108 -987 444 -1520 715 -1800 915 -86 62 -221 187
-257 239 l-20 30 19 -75z"/>
<path d="M2971 1849 c-67 -144 -119 -264 -117 -266 2 -3 21 0 43 6 67 19 135
14 171 -12 53 -40 191 -199 217 -252 14 -30 32 -99 45 -171 22 -134 33 -169
80 -261 42 -84 57 -174 42 -266 -13 -85 -37 -145 -114 -290 -32 -59 -58 -109
-58 -112 0 -3 190 -5 421 -5 l421 0 -6 38 c-15 83 -61 206 -112 299 -89 160
-98 192 -98 378 -1 156 0 161 27 218 28 56 32 60 120 103 51 24 122 67 159 94
66 50 168 158 168 179 0 16 -234 374 -247 378 -6 2 -14 -5 -18 -17 -13 -40
-121 -139 -181 -167 -47 -21 -78 -27 -160 -31 -148 -7 -179 6 -307 125 -86 80
-354 293 -369 293 -3 0 -60 -118 -127 -261z"/>
</g>
</svg>
